<?xml version="1.0" encoding="utf-8"?>
<!-- Generator: Adobe Illustrator 16.0.0, SVG Export Plug-In . SVG Version: 6.00 Build 0)  -->
<!DOCTYPE svg PUBLIC "-//W3C//DTD SVG 1.1//EN" "http://www.w3.org/Graphics/SVG/1.1/DTD/svg11.dtd">
<svg version="1.1" xmlns="http://www.w3.org/2000/svg" xmlns:xlink="http://www.w3.org/1999/xlink" x="0px" y="0px"
	 width="226.77px" height="283.46px" viewBox="0 0 226.77 283.46" enable-background="new 0 0 226.77 283.46" xml:space="preserve">
<g id="Camada_1">
</g>
<g id="Layer_1">
	<g>
		<g>
			<polygon fill="#391A20" points="175.797,46.197 175.797,42.197 171.547,42.197 171.547,30.447 155.547,30.447 155.547,22.197 
				143.547,22.197 143.547,14.197 131.547,14.197 131.547,6.447 91.546,6.447 91.546,14.197 79.546,14.197 79.546,22.197 
				67.546,22.197 67.546,30.447 51.546,30.447 51.546,42.197 47.296,42.197 47.296,46.197 35.546,46.197 35.546,85.947 
				107.922,85.947 115.171,85.947 187.547,85.947 187.547,46.197 			"/>
			<polygon fill="#E3D4B1" points="147.797,78.447 147.797,62.488 163.797,62.488 163.797,46.322 147.797,46.322 147.797,38.384 
				139.797,38.384 139.797,30.447 123.797,30.447 123.797,38.384 115.797,38.384 115.797,46.322 107.754,46.322 107.754,38.384 
				99.754,38.384 99.754,30.447 83.754,30.447 83.754,38.384 75.754,38.384 75.754,46.322 59.754,46.322 59.754,62.488 
				75.754,62.488 75.754,78.447 56.754,78.447 56.754,80.447 59.754,80.447 59.754,82.489 62.754,82.489 62.754,84.572 
				64.754,84.572 64.754,85.947 158.797,85.947 158.797,84.572 160.797,84.572 160.797,82.489 163.797,82.489 163.797,80.447 
				166.797,80.447 166.797,78.447 			"/>
			<rect x="83.796" y="38.384" fill="#FFFFFF" width="24.126" height="32.062"/>
			<rect x="91.671" y="51.322" fill="#000002" width="16.251" height="19.125"/>
			<rect x="115.797" y="46.197" fill="#FFFFFF" width="24.125" height="24.25"/>
			<rect x="115.797" y="54.416" fill="#000002" width="16.25" height="16.031"/>
			<polygon fill="#E3D4B1" points="204.065,62.431 204.065,54.416 195.953,54.416 195.953,46.197 187.578,46.197 187.578,90.259 
				204.052,90.259 204.052,86.072 212.078,86.072 212.078,62.431 			"/>
			<polygon fill="#E3D4B1" points="19.059,62.431 19.059,54.416 27.171,54.416 27.171,46.197 35.546,46.197 35.546,90.259 
				19.072,90.259 19.072,86.072 11.046,86.072 11.046,62.431 			"/>
			<rect x="99.765" y="78.822" fill="#391A20" width="24.001" height="7.125"/>
		</g>
		<g>
			<polygon fill="#CAC9CA" points="204.052,90.27 199.083,90.27 199.083,85.822 24.041,85.822 24.041,90.27 19.072,90.27 
				19.072,195.607 24.041,195.607 24.041,200.055 199.083,200.055 199.083,195.607 204.052,195.607 			"/>
			<rect x="24.041" y="201.225" fill="#CAC9CA" width="175.042" height="7.021"/>
			<rect x="27.32" y="203.33" fill="#868686" width="168.483" height="2.811"/>
		</g>
		<polygon fill-rule="evenodd" clip-rule="evenodd" fill="#391A20" points="63.175,80.447 63.175,78.447 35.173,78.447 
			35.171,78.447 19.171,78.447 19.171,80.447 17.171,80.447 17.171,82.447 15.171,82.447 15.171,87.447 11.171,87.447 
			11.171,91.447 9.171,91.447 9.171,125.451 11.171,125.451 11.171,135.453 15.171,135.453 15.171,139.455 17.171,139.455 
			17.171,142.455 20.171,142.455 20.171,144.447 49.175,144.447 49.175,142.447 51.171,142.447 51.171,134.447 49.175,134.447 
			49.171,134.447 27.172,134.447 27.172,131.447 53.175,131.447 53.175,120.447 27.172,120.447 27.172,118.447 51.175,118.447 
			51.175,116.449 55.159,116.449 55.159,104.447 51.175,104.447 51.175,102.447 27.172,102.447 27.172,100.449 53.175,100.449 
			53.175,88.447 35.173,88.447 35.173,86.448 55.171,86.448 55.171,90.448 65.172,90.448 65.172,80.447 		"/>
		<polygon fill="#391A20" points="214.086,82.468 212.066,82.468 212.066,80.468 208.085,80.468 208.085,76.468 204.083,76.468 
			204.083,74.468 172.079,74.468 172.079,76.468 166.079,76.468 166.079,80.468 163.071,80.468 163.071,82.468 160.079,82.468 
			160.079,84.468 158.079,84.468 158.079,85.468 158.079,100.471 158.079,115.472 160.079,115.472 160.079,116.464 168.08,116.464 
			168.08,115.472 170.081,115.472 170.081,90.469 172.079,90.469 172.079,116.472 174.079,116.472 174.079,120.457 186.081,120.457 
			186.081,116.472 188.079,116.472 188.079,90.469 190.079,90.469 190.079,118.472 201.08,118.472 201.08,90.469 204.079,90.469 
			204.079,114.468 204.079,114.472 204.079,116.468 212.08,116.468 212.08,114.472 214.08,114.472 214.08,90.469 214.086,90.469 		
			"/>
		<g>
			<polygon fill="#F8EA3B" points="133.368,135.218 133.368,132.612 130.767,132.612 130.767,127.434 128.208,127.434 
				128.208,122.221 120.35,122.221 120.35,127.434 117.739,127.434 117.739,132.612 115.129,132.612 115.129,135.218 
				115.129,137.825 112.522,137.825 112.522,140.43 112.522,143.037 109.916,143.037 109.916,145.643 109.916,148.25 
				107.311,148.25 107.311,150.855 104.704,150.855 104.704,153.461 102.099,153.461 102.099,156.068 99.492,156.068 
				99.492,158.674 96.886,158.674 96.886,161.281 95.502,161.281 95.502,161.285 94.286,161.285 94.286,171.73 104.729,171.73 
				104.729,169.125 112.56,169.125 112.56,166.518 115.165,166.518 115.165,163.912 117.771,163.912 117.771,161.307 
				120.377,161.307 120.377,158.699 122.983,158.699 122.983,156.094 125.59,156.094 125.59,153.486 128.196,153.486 
				128.196,150.881 128.196,148.275 130.803,148.275 130.803,145.668 130.803,143.062 133.408,143.062 133.408,135.218 			"/>
			<g>
				<polygon fill="#391A20" points="91.604,166.521 88.997,166.521 88.997,169.123 91.604,169.123 91.604,171.73 94.291,171.73 
					94.291,163.928 91.604,163.928 				"/>
				<polygon fill="#391A20" points="117.743,114.409 117.743,117.003 115.06,117.003 115.06,119.605 117.743,119.605 
					117.743,122.212 125.602,122.212 125.602,114.409 				"/>
			</g>
		</g>
		<polygon fill-rule="evenodd" clip-rule="evenodd" fill="#391A20" points="214.086,183.998 212.086,183.998 212.086,177.998 
			208.086,177.998 208.086,171.998 204.085,171.998 204.085,177.998 204.085,177.998 204.085,183.998 204.085,183.998 
			204.085,189.998 199.084,189.998 199.084,195.998 175.081,195.998 175.081,197.998 151.08,197.998 151.08,199.998 
			131.078,199.998 131.078,203.998 126.107,203.998 126.107,207.998 151.081,207.998 151.081,211.998 190.086,211.998 
			190.086,207.998 201.086,207.998 201.086,203.998 209.086,203.998 209.086,195.998 211.086,195.998 211.086,189.998 
			214.086,189.998 		"/>
	</g>
	<path fill="#74AB40" d="M58.254,259.46c2.37-11.654,0.165-29.358-1.479-31.594c-2.113-2.726-15.625-5.332-24.801-4.94
		c-0.292,0.013-0.895,0.036-0.415,0.516c5.155,5.179,6.343,6.98,6.343,6.98s-2.471-2.096-6.781-6.168
		c-0.584-0.584-1.062-1.063-2.411-1.058c-5.09,0.607-9.883,2.069-13.424,4.41c-0.143,0.095-0.457,0.314-0.417,0.748
		c0.06,0.796,0.411,2.047,1.772,3.409c5.939,5.939,8.517,8.983,9.504,10.237c0.559,0.815,0.535,1.772,0.535,1.772v17.917
		c0,0.792-0.276,1.464-0.828,2.016s-1.209,0.827-1.973,0.827c-0.821,0-1.506-0.275-2.058-0.827s-0.828-1.224-0.828-2.016v-21.388
		c0-0.556,0.15-1.057,0.442-1.508c-1.668-1.362-3.664-3.084-5.911-5.207c-1.124-1.123-2.291-1.802-3.591-1.882
		c-0.306-0.019-1-0.015-1.278,0.535c-2.36,3.543-3.871,8.305-4.512,13.367c-0.084,0.938-0.201,1.194,0.816,2.572
		c3.68,4.977,4.481,6.541,4.481,6.541s-2.137-2.112-5.089-5.928c-0.15-0.201-0.492-0.015-0.505,0.253
		c-0.021,0.415-0.037,0.831-0.045,1.247c0.039-0.039,0.055-0.055,0.055-0.055s-0.377,1.296,1.116,2.789
		c5.396,5.396,7.587,8.6,7.587,8.6s-4.002-3.343-8.314-7.414c-0.125-0.126-0.415-0.355-0.311,0.646
		c0.544,6.694,2.616,12.93,6.268,16.581c5.068,5.068,17.478,6.809,27.901,4.809c0.685-0.079,0.438-0.771,0.224-1.072
		c-0.242-0.341-0.529-0.675-0.859-1.005c-5.933-6.282-8.86-10.719-8.86-10.719s2.724,1.796,10.587,9.659
		c1.05,1.05,2.032,1.465,2.769,1.613c0.789,0.16,1.889-0.057,2.284-0.209c2.796-1.085,5.234-2.521,7.042-4.33
		c1.264-1.264,2.298-2.887,3.126-4.755c0.893-1.74-0.129-3.646-1.462-4.979c-5.933-6.281-8.859-10.718-8.859-10.718
		s2.723,1.795,10.587,9.659c0.207,0.206,0.41,0.387,0.609,0.546C57.546,260.144,58.12,260.524,58.254,259.46z M47.025,242.34
		c-0.551,0.538-1.238,0.807-2.058,0.807h-3.904v18.501c0,0.821-0.269,1.507-0.806,2.059c-0.538,0.552-1.217,0.827-2.037,0.827
		c-0.821,0-1.5-0.275-2.037-0.827c-0.538-0.552-0.806-1.237-0.806-2.059v-18.501h-3.947c-0.792,0-1.464-0.269-2.016-0.807
		c-0.551-0.537-0.827-1.216-0.827-2.037c0-0.791,0.276-1.47,0.827-2.036c0.552-0.565,1.224-0.849,2.016-0.849h13.537
		c0.82,0,1.507,0.283,2.058,0.849c0.552,0.566,0.828,1.245,0.828,2.036C47.853,241.124,47.577,241.803,47.025,242.34z"/>
	<g>
		<path fill="#391A20" d="M79.49,242.108c1.544,0,2.996,0.294,4.355,0.88c1.359,0.587,2.548,1.391,3.568,2.409
			c1.019,1.02,1.814,2.209,2.386,3.568c0.571,1.359,0.857,2.811,0.857,4.354c0,2.102-0.448,3.954-1.344,5.561
			c0.896,1.204,1.344,2.733,1.344,4.587c0,1.081-0.201,2.108-0.603,3.081c-0.402,0.973-0.95,1.83-1.645,2.571
			c-0.695,0.741-1.522,1.336-2.479,1.784c-0.958,0.447-1.992,0.702-3.104,0.764H71.058c-0.772,0-1.429-0.301-1.969-0.903
			c-0.541-0.602-0.811-1.305-0.811-2.107c0-0.804,0.285-1.506,0.857-2.108c0.571-0.603,1.274-0.92,2.108-0.95h11.259
			c0.618,0,1.127-0.208,1.529-0.625c0.401-0.417,0.632-0.935,0.695-1.553v-0.046c-0.618,0.34-1.32,0.618-2.108,0.834
			c-0.788,0.217-1.831,0.324-3.128,0.324c-1.637,0-3.143-0.278-4.517-0.834c-1.375-0.556-2.556-1.328-3.544-2.316
			c-0.989-0.988-1.761-2.17-2.317-3.545c-0.556-1.374-0.834-2.88-0.834-4.518c0-1.513,0.309-2.949,0.927-4.309
			c0.618-1.358,1.443-2.548,2.479-3.567c1.034-1.02,2.224-1.83,3.567-2.433S78.007,242.108,79.49,242.108z M79.49,248.132
			c-0.68,0-1.328,0.146-1.946,0.439c-0.618,0.294-1.166,0.68-1.645,1.158c-0.479,0.479-0.865,1.027-1.159,1.646
			c-0.294,0.618-0.44,1.267-0.44,1.945c0,0.68,0.131,1.337,0.394,1.97c0.262,0.633,0.625,1.189,1.089,1.668
			c0.463,0.479,1.012,0.865,1.645,1.158c0.633,0.294,1.32,0.44,2.062,0.44c0.742,0,1.437-0.14,2.085-0.417
			c0.648-0.278,1.205-0.664,1.668-1.158c0.463-0.494,0.826-1.05,1.088-1.669c0.262-0.617,0.394-1.281,0.394-1.992
			c0-0.71-0.147-1.382-0.44-2.015c-0.294-0.633-0.68-1.182-1.159-1.646c-0.479-0.463-1.035-0.834-1.668-1.111
			C80.826,248.271,80.169,248.132,79.49,248.132z"/>
		<path fill="#391A20" d="M104,242.525c1.512,0,2.949,0.294,4.309,0.88c1.359,0.587,2.549,1.391,3.568,2.409
			c1.018,1.02,1.83,2.209,2.432,3.568s0.904,2.826,0.904,4.401c0,1.545-0.295,2.988-0.881,4.332
			c-0.588,1.344-1.383,2.525-2.387,3.544c-1.004,1.02-2.186,1.823-3.545,2.41c-1.359,0.586-2.826,0.88-4.4,0.88
			c-1.545,0-2.996-0.278-4.355-0.834c-1.36-0.556-2.549-1.336-3.568-2.34c-1.02-1.003-1.823-2.185-2.409-3.544
			c-0.587-1.359-0.88-2.842-0.88-4.448c0-1.544,0.285-2.988,0.857-4.332c0.571-1.344,1.359-2.518,2.363-3.521
			c1.003-1.004,2.193-1.807,3.568-2.409C100.949,242.919,102.424,242.588,104,242.525z M104,248.595
			c-0.711,0-1.375,0.132-1.992,0.394c-0.619,0.263-1.166,0.626-1.645,1.089c-0.48,0.464-0.858,1.013-1.136,1.646
			c-0.278,0.633-0.417,1.32-0.417,2.062c0,0.711,0.139,1.383,0.417,2.016c0.278,0.633,0.656,1.189,1.136,1.668
			c0.479,0.479,1.025,0.856,1.645,1.135c0.617,0.278,1.281,0.417,1.992,0.417c0.709,0,1.381-0.139,2.016-0.417
			c0.633-0.278,1.182-0.656,1.645-1.135s0.834-1.035,1.111-1.668s0.418-1.305,0.418-2.016c-0.062-1.421-0.572-2.625-1.529-3.614
			C106.701,249.182,105.482,248.657,104,248.595z"/>
		<path fill="#391A20" d="M120.262,264.579c-0.834,0-1.529-0.27-2.085-0.811c-0.556-0.54-0.865-1.258-0.927-2.154v-8.571
			c0.03-1.483,0.348-2.88,0.95-4.193c0.603-1.312,1.405-2.456,2.409-3.429c1.003-0.973,2.178-1.745,3.521-2.316
			s2.771-0.888,4.285-0.95c0.865,0,1.583,0.294,2.155,0.881c0.57,0.587,0.887,1.297,0.949,2.131c0,0.834-0.294,1.537-0.88,2.108
			c-0.587,0.571-1.313,0.873-2.178,0.903c-0.711,0-1.375,0.132-1.992,0.394c-0.618,0.263-1.158,0.626-1.622,1.089
			c-0.463,0.464-0.834,1.013-1.112,1.646c-0.277,0.633-0.417,1.32-0.417,2.062v8.433c-0.062,0.804-0.363,1.467-0.903,1.992
			S121.157,264.579,120.262,264.579z"/>
		<path fill="#391A20" d="M136.199,235.158c0.803,0,1.49,0.301,2.062,0.903c0.57,0.603,0.856,1.306,0.856,2.108
			c0,0.804-0.286,1.506-0.856,2.108c-0.572,0.602-1.26,0.903-2.062,0.903c-0.896-0.03-1.629-0.316-2.2-0.857
			c-0.572-0.54-0.857-1.305-0.857-2.293c0.03-0.804,0.348-1.483,0.95-2.039C134.693,235.437,135.396,235.158,136.199,235.158z
			 M136.199,242.247c0.803,0,1.475,0.294,2.016,0.881c0.54,0.587,0.842,1.297,0.903,2.131v16.401c0,0.834-0.263,1.529-0.787,2.085
			c-0.525,0.557-1.236,0.865-2.132,0.927c-0.804,0-1.482-0.246-2.038-0.741c-0.557-0.493-0.896-1.188-1.02-2.085v-16.772
			c0.062-0.803,0.386-1.467,0.973-1.992C134.701,242.557,135.396,242.278,136.199,242.247z"/>
		<path fill="#391A20" d="M144.816,235.065c0.834,0,1.536,0.294,2.108,0.881c0.571,0.587,0.888,1.312,0.95,2.178v18.301
			c0,0.618,0.2,1.144,0.602,1.575c0.401,0.434,0.911,0.649,1.529,0.649c0.803,0,1.506,0.277,2.108,0.834
			c0.603,0.556,0.919,1.251,0.95,2.085c0,0.741-0.255,1.397-0.765,1.969c-0.51,0.572-1.167,0.919-1.97,1.042h-0.648
			c-1.081,0-2.101-0.224-3.058-0.672c-0.958-0.447-1.8-1.042-2.525-1.783c-0.727-0.741-1.297-1.605-1.714-2.595
			c-0.417-0.988-0.626-2.022-0.626-3.104v-18.486c0.093-0.772,0.417-1.437,0.973-1.992
			C143.288,235.39,143.982,235.097,144.816,235.065z"/>
		<path fill="#391A20" d="M157.79,235.065c0.834,0,1.536,0.294,2.108,0.881c0.571,0.587,0.888,1.312,0.95,2.178v18.301
			c0,0.618,0.2,1.144,0.602,1.575c0.401,0.434,0.911,0.649,1.529,0.649c0.803,0,1.506,0.277,2.108,0.834
			c0.603,0.556,0.919,1.251,0.95,2.085c0,0.741-0.255,1.397-0.765,1.969c-0.51,0.572-1.167,0.919-1.97,1.042h-0.648
			c-1.081,0-2.101-0.224-3.058-0.672c-0.958-0.447-1.8-1.042-2.525-1.783c-0.727-0.741-1.297-1.605-1.714-2.595
			c-0.417-0.988-0.626-2.022-0.626-3.104v-18.486c0.093-0.772,0.417-1.437,0.973-1.992
			C156.262,235.39,156.956,235.097,157.79,235.065z"/>
		<path fill="#391A20" d="M179.196,242.154c1.39,0.155,2.694,0.557,3.915,1.205c1.22,0.648,2.271,1.476,3.15,2.479
			c0.881,1.004,1.575,2.147,2.085,3.429c0.51,1.282,0.765,2.634,0.765,4.054v8.201c0,0.834-0.31,1.545-0.927,2.132
			c-0.618,0.587-1.313,0.88-2.085,0.88c-1.081,0-1.946-0.494-2.595-1.482c-0.154,0.062-0.294,0.132-0.417,0.208
			c-0.124,0.078-0.247,0.147-0.37,0.209c-0.741,0.34-1.499,0.603-2.271,0.787c-0.804,0.186-1.653,0.278-2.549,0.278
			c-2.316,0-4.386-0.626-6.208-1.877c-1.823-1.251-3.182-2.864-4.077-4.841c-0.31-0.711-0.549-1.437-0.719-2.178
			c-0.17-0.742-0.255-1.514-0.255-2.317c0-0.803,0.085-1.575,0.255-2.316s0.409-1.467,0.719-2.178
			c0.896-2.007,2.254-3.629,4.077-4.864c1.822-1.235,3.892-1.854,6.208-1.854c0.247,0,0.471,0,0.672,0
			S178.979,242.124,179.196,242.154z M177.853,258.51c0.71,0,1.382-0.131,2.016-0.394c0.633-0.262,1.182-0.626,1.645-1.089
			c0.464-0.463,0.834-1.012,1.112-1.645c0.277-0.633,0.417-1.321,0.417-2.062c0-0.679-0.14-1.335-0.417-1.969
			c-0.278-0.633-0.657-1.188-1.136-1.668c-0.479-0.479-1.035-0.857-1.668-1.135c-0.633-0.278-1.29-0.417-1.969-0.417
			c-0.68,0-1.328,0.139-1.946,0.417c-0.618,0.277-1.166,0.656-1.645,1.135c-0.479,0.479-0.857,1.035-1.135,1.668
			c-0.278,0.634-0.417,1.29-0.417,1.969c0,0.711,0.146,1.383,0.439,2.016c0.294,0.634,0.68,1.182,1.158,1.646
			c0.479,0.463,1.027,0.834,1.646,1.111C176.57,258.371,177.204,258.51,177.853,258.51z"/>
		<path fill="#391A20" d="M211.258,242.108c0.803,0,1.498,0.294,2.085,0.88c0.586,0.648,0.88,1.344,0.88,2.085
			c0,0.834-0.294,1.545-0.88,2.132c-0.155,0.154-0.31,0.309-0.463,0.463c-0.155,0.155-0.31,0.31-0.464,0.464
			c-1.73,1.729-3.451,3.451-5.166,5.166c-1.714,1.714-3.452,3.437-5.212,5.166h9.22c0.771,0.031,1.467,0.34,2.085,0.927
			c0.586,0.648,0.88,1.374,0.88,2.178c0,0.741-0.294,1.436-0.88,2.085c-0.648,0.587-1.344,0.88-2.085,0.88h-0.139h-15.104h-1.158
			h-0.14c-0.804,0-1.498-0.293-2.085-0.88c-0.618-0.618-0.911-1.312-0.88-2.085c-0.062-0.834,0.216-1.529,0.834-2.085l11.305-11.352
			h-9.034h-0.14c-0.834-0.062-1.528-0.371-2.085-0.927c-0.648-0.587-0.942-1.298-0.88-2.132c-0.031-0.771,0.262-1.467,0.88-2.085
			c0.557-0.586,1.251-0.88,2.085-0.88H211.258z"/>
	</g>
</g>
</svg>
