<svg xmlns="http://www.w3.org/2000/svg" width="226.77" height="283.46" viewBox="0 0 226.77 283.46"><path fill="#391A20" d="M175.797 46.197v-4h-4.25v-11.75h-16v-8.25h-12v-8h-12v-7.75H91.546v7.75h-12v8h-12v8.25h-16v11.75h-4.25v4h-11.75v39.75h152.001v-39.75z"/><path fill="#E3D4B1" d="M147.797 78.447V62.488h16V46.322h-16v-7.938h-8v-7.937h-16v7.937h-8v7.938h-8.043v-7.938h-8v-7.937h-16v7.937h-8v7.938h-16v16.166h16v15.959h-19v2h3v2.042h3v2.083h2v1.375h94.043v-1.375h2v-2.083h3v-2.042h3v-2z"/><path fill="#FFF" d="M83.796 38.384h24.126v32.062H83.796z"/><path fill="#000002" d="M91.671 51.322h16.251v19.125H91.671z"/><path fill="#FFF" d="M115.797 46.197h24.125v24.25h-24.125z"/><path fill="#000002" d="M115.797 54.416h16.25v16.031h-16.25z"/><path fill="#E3D4B1" d="M204.065 62.431v-8.015h-8.112v-8.219h-8.375v44.062h16.474v-4.187h8.026V62.431zM19.059 62.431v-8.015h8.112v-8.219h8.375v44.062H19.072v-4.187h-8.026V62.431z"/><path fill="#391A20" d="M99.765 78.822h24.001v7.125H99.765z"/><g><path fill="#CAC9CA" d="M204.052 90.27h-4.969v-4.448H24.041v4.448h-4.969v105.337h4.969v4.448h175.042v-4.448h4.969zM24.041 201.225h175.042v7.021H24.041z"/><path fill="#868686" d="M27.32 203.33h168.483v2.811H27.32z"/></g><path fill-rule="evenodd" clip-rule="evenodd" fill="#391A20" d="M63.175 80.447v-2H19.171v2h-2v2h-2v5h-4v4h-2v34.004h2v10.002h4v4.002h2v3h3v1.992h29.004v-2h1.996v-8H27.172v-3h26.003v-11H27.172v-2h24.003v-1.998h3.984v-12.002h-3.984v-2H27.172v-1.998h26.003V88.447H35.173v-1.999h19.998v4h10.001V80.447z"/><path fill="#391A20" d="M214.086 82.468h-2.02v-2h-3.981v-4h-4.002v-2h-32.004v2h-6v4h-3.008v2h-2.992v2h-2V115.472h2v.992h8.001v-.992h2.001V90.469h1.998v26.003h2v3.985h12.002v-3.985h1.998V90.469h2v28.003h11.001V90.469h2.999v25.999h8.001v-1.996h2V90.469h.006z"/><g><path fill="#F8EA3B" d="M133.368 135.218v-2.606h-2.601v-5.178h-2.559v-5.213h-7.858v5.213h-2.611v5.178h-2.61v5.213h-2.607v5.212h-2.606v5.213h-2.605v2.605h-2.607v2.606h-2.605v2.607h-2.607v2.606h-2.606v2.607h-1.384v.004h-1.216v10.445h10.443v-2.605h7.831v-2.607h2.605v-2.606h2.606v-2.605h2.606v-2.608h2.606v-2.605h2.607v-2.608h2.606v-5.211h2.607v-5.213h2.605v-7.844z"/><g fill="#391A20"><path d="M91.604 166.521h-2.607v2.602h2.607v2.607h2.687v-7.802h-2.687zM117.743 114.409v2.594h-2.683v2.602h2.683v2.607h7.859v-7.803z"/></g></g><path fill-rule="evenodd" clip-rule="evenodd" fill="#391A20" d="M214.086 183.998h-2v-6h-4v-6h-4.001v18h-5.001v6h-24.003v2H151.08v2h-20.002v4h-4.971v4h24.974v4h39.005v-4h11v-4h8v-8h2v-6h3z"/><path fill="#74AB40" d="M58.254 259.46c2.37-11.654.165-29.358-1.479-31.594-2.113-2.726-15.625-5.332-24.801-4.94-.292.013-.895.036-.415.516 5.155 5.179 6.343 6.98 6.343 6.98s-2.471-2.096-6.781-6.168c-.584-.584-1.062-1.063-2.411-1.058-5.09.607-9.883 2.069-13.424 4.41-.143.095-.457.314-.417.748.06.796.411 2.047 1.772 3.409 5.939 5.939 8.517 8.983 9.504 10.237.559.815.535 1.772.535 1.772v17.917c0 .792-.276 1.464-.828 2.016s-1.209.827-1.973.827c-.821 0-1.506-.275-2.058-.827s-.828-1.224-.828-2.016v-21.388c0-.556.15-1.057.442-1.508a109 109 0 0 1-5.911-5.207c-1.124-1.123-2.291-1.802-3.591-1.882-.306-.019-1-.015-1.278.535-2.36 3.543-3.871 8.305-4.512 13.367-.084.938-.201 1.194.816 2.572 3.68 4.977 4.481 6.541 4.481 6.541s-2.137-2.112-5.089-5.928c-.15-.201-.492-.015-.505.253-.021.415-.037.831-.045 1.247l.055-.055s-.377 1.296 1.116 2.789c5.396 5.396 7.587 8.6 7.587 8.6s-4.002-3.343-8.314-7.414c-.125-.126-.415-.355-.311.646.544 6.694 2.616 12.93 6.268 16.581 5.068 5.068 17.478 6.809 27.901 4.809.685-.079.438-.771.224-1.072a7.877 7.877 0 0 0-.859-1.005c-5.933-6.282-8.86-10.719-8.86-10.719s2.724 1.796 10.587 9.659c1.05 1.05 2.032 1.465 2.769 1.613.789.16 1.889-.057 2.284-.209 2.796-1.085 5.234-2.521 7.042-4.33 1.264-1.264 2.298-2.887 3.126-4.755.893-1.74-.129-3.646-1.462-4.979-5.933-6.281-8.859-10.718-8.859-10.718s2.723 1.795 10.587 9.659c.207.206.41.387.609.546.255.207.829.587.963-.477zm-11.229-17.12c-.551.538-1.238.807-2.058.807h-3.904v18.501c0 .821-.269 1.507-.806 2.059-.538.552-1.217.827-2.037.827-.821 0-1.5-.275-2.037-.827-.538-.552-.806-1.237-.806-2.059v-18.501H31.43c-.792 0-1.464-.269-2.016-.807-.551-.537-.827-1.216-.827-2.037 0-.791.276-1.47.827-2.036a2.713 2.713 0 0 1 2.016-.849h13.537c.82 0 1.507.283 2.058.849.552.566.828 1.245.828 2.036 0 .821-.276 1.5-.828 2.037z"/><g fill="#391A20"><path d="M79.49 242.108c1.544 0 2.996.294 4.355.88a11.398 11.398 0 0 1 3.568 2.409 11.127 11.127 0 0 1 3.243 7.922c0 2.102-.448 3.954-1.344 5.561.896 1.204 1.344 2.733 1.344 4.587a7.99 7.99 0 0 1-.603 3.081 8.42 8.42 0 0 1-1.645 2.571 8.028 8.028 0 0 1-2.479 1.784 8.37 8.37 0 0 1-3.104.764H71.058c-.772 0-1.429-.301-1.969-.903a3.054 3.054 0 0 1-.811-2.107c0-.804.285-1.506.857-2.108a2.945 2.945 0 0 1 2.108-.95h11.259c.618 0 1.127-.208 1.529-.625.401-.417.632-.935.695-1.553v-.046c-.618.34-1.32.618-2.108.834-.788.217-1.831.324-3.128.324-1.637 0-3.143-.278-4.517-.834-1.375-.556-2.556-1.328-3.544-2.316-.989-.988-1.761-2.17-2.317-3.545-.556-1.374-.834-2.88-.834-4.518 0-1.513.309-2.949.927-4.309a11.819 11.819 0 0 1 2.479-3.567c1.034-1.02 2.224-1.83 3.567-2.433s2.756-.903 4.239-.903zm0 6.024c-.68 0-1.328.146-1.946.439a5.896 5.896 0 0 0-2.804 2.804 4.475 4.475 0 0 0-.44 1.945c0 .68.131 1.337.394 1.97a5.269 5.269 0 0 0 1.089 1.668 5.443 5.443 0 0 0 1.645 1.158c.633.294 1.32.44 2.062.44a5.25 5.25 0 0 0 2.085-.417 4.91 4.91 0 0 0 1.668-1.158 5.635 5.635 0 0 0 1.088-1.669 5.044 5.044 0 0 0 .394-1.992c0-.71-.147-1.382-.44-2.015a5.48 5.48 0 0 0-1.159-1.646 5.619 5.619 0 0 0-1.668-1.111 4.857 4.857 0 0 0-1.968-.416zM104 242.525c1.512 0 2.949.294 4.309.88a11.387 11.387 0 0 1 3.568 2.409c1.018 1.02 1.83 2.209 2.432 3.568s.904 2.826.904 4.401c0 1.545-.295 2.988-.881 4.332a11.655 11.655 0 0 1-2.387 3.544 11.087 11.087 0 0 1-3.545 2.41c-1.359.586-2.826.88-4.4.88-1.545 0-2.996-.278-4.355-.834a10.91 10.91 0 0 1-3.568-2.34 11.053 11.053 0 0 1-2.409-3.544c-.587-1.359-.88-2.842-.88-4.448 0-1.544.285-2.988.857-4.332a11.009 11.009 0 0 1 2.363-3.521c1.003-1.004 2.193-1.807 3.568-2.409 1.373-.602 2.848-.933 4.424-.996zm0 6.07c-.711 0-1.375.132-1.992.394a5.362 5.362 0 0 0-1.645 1.089 5.133 5.133 0 0 0-1.136 1.646 5.07 5.07 0 0 0-.417 2.062c0 .711.139 1.383.417 2.016a5.487 5.487 0 0 0 2.781 2.803 4.792 4.792 0 0 0 1.992.417c.709 0 1.381-.139 2.016-.417.633-.278 1.182-.656 1.645-1.135s.834-1.035 1.111-1.668.418-1.305.418-2.016c-.062-1.421-.572-2.625-1.529-3.614-.96-.99-2.179-1.515-3.661-1.577zM120.262 264.579c-.834 0-1.529-.27-2.085-.811-.556-.54-.865-1.258-.927-2.154v-8.571c.03-1.483.348-2.88.95-4.193a11.29 11.29 0 0 1 2.409-3.429c1.003-.973 2.178-1.745 3.521-2.316s2.771-.888 4.285-.95c.865 0 1.583.294 2.155.881.57.587.887 1.297.949 2.131 0 .834-.294 1.537-.88 2.108-.587.571-1.313.873-2.178.903-.711 0-1.375.132-1.992.394a5.098 5.098 0 0 0-1.622 1.089 5.351 5.351 0 0 0-1.112 1.646 5.086 5.086 0 0 0-.417 2.062v8.433c-.062.804-.363 1.467-.903 1.992s-1.258.785-2.153.785zM136.199 235.158c.803 0 1.49.301 2.062.903.57.603.856 1.306.856 2.108 0 .804-.286 1.506-.856 2.108-.572.602-1.26.903-2.062.903-.896-.03-1.629-.316-2.2-.857-.572-.54-.857-1.305-.857-2.293.03-.804.348-1.483.95-2.039a3.013 3.013 0 0 1 2.107-.833zm0 7.089a2.63 2.63 0 0 1 2.016.881c.54.587.842 1.297.903 2.131v16.401c0 .834-.263 1.529-.787 2.085-.525.557-1.236.865-2.132.927-.804 0-1.482-.246-2.038-.741-.557-.493-.896-1.188-1.02-2.085v-16.772c.062-.803.386-1.467.973-1.992a3.221 3.221 0 0 1 2.085-.835zM144.816 235.065c.834 0 1.536.294 2.108.881.571.587.888 1.312.95 2.178v18.301c0 .618.2 1.144.602 1.575.401.434.911.649 1.529.649.803 0 1.506.277 2.108.834.603.556.919 1.251.95 2.085 0 .741-.255 1.397-.765 1.969-.51.572-1.167.919-1.97 1.042h-.648a7.126 7.126 0 0 1-3.058-.672 8.573 8.573 0 0 1-2.525-1.783 8.217 8.217 0 0 1-1.714-2.595 7.9 7.9 0 0 1-.626-3.104v-18.486a3.3 3.3 0 0 1 .973-1.992c.558-.557 1.252-.85 2.086-.882zM157.79 235.065c.834 0 1.536.294 2.108.881.571.587.888 1.312.95 2.178v18.301c0 .618.2 1.144.602 1.575.401.434.911.649 1.529.649.803 0 1.506.277 2.108.834.603.556.919 1.251.95 2.085 0 .741-.255 1.397-.765 1.969-.51.572-1.167.919-1.97 1.042h-.648a7.126 7.126 0 0 1-3.058-.672 8.573 8.573 0 0 1-2.525-1.783 8.217 8.217 0 0 1-1.714-2.595 7.9 7.9 0 0 1-.626-3.104v-18.486a3.3 3.3 0 0 1 .973-1.992c.558-.557 1.252-.85 2.086-.882zM179.196 242.154c1.39.155 2.694.557 3.915 1.205a11.025 11.025 0 0 1 3.15 2.479 11.72 11.72 0 0 1 2.085 3.429c.51 1.282.765 2.634.765 4.054v8.201c0 .834-.31 1.545-.927 2.132-.618.587-1.313.88-2.085.88-1.081 0-1.946-.494-2.595-1.482a2.747 2.747 0 0 0-.417.208 4.48 4.48 0 0 1-.37.209c-.741.34-1.499.603-2.271.787-.804.186-1.653.278-2.549.278-2.316 0-4.386-.626-6.208-1.877-1.823-1.251-3.182-2.864-4.077-4.841a12.345 12.345 0 0 1-.719-2.178 10.342 10.342 0 0 1-.255-2.317c0-.803.085-1.575.255-2.316s.409-1.467.719-2.178a11.356 11.356 0 0 1 4.077-4.864c1.822-1.235 3.892-1.854 6.208-1.854h.672c.201 0 .41.015.627.045zm-1.343 16.356c.71 0 1.382-.131 2.016-.394a5.01 5.01 0 0 0 1.645-1.089 5.317 5.317 0 0 0 1.112-1.645 5.09 5.09 0 0 0 .417-2.062 4.87 4.87 0 0 0-.417-1.969 5.414 5.414 0 0 0-2.804-2.803 4.85 4.85 0 0 0-1.969-.417c-.68 0-1.328.139-1.946.417a5.476 5.476 0 0 0-2.78 2.803 4.853 4.853 0 0 0-.417 1.969c0 .711.146 1.383.439 2.016.294.634.68 1.182 1.158 1.646a5.698 5.698 0 0 0 1.646 1.111 4.582 4.582 0 0 0 1.9.417zM211.258 242.108c.803 0 1.498.294 2.085.88.586.648.88 1.344.88 2.085 0 .834-.294 1.545-.88 2.132l-.463.463-.464.464-5.166 5.166a826.115 826.115 0 0 1-5.212 5.166h9.22c.771.031 1.467.34 2.085.927.586.648.88 1.374.88 2.178 0 .741-.294 1.436-.88 2.085-.648.587-1.344.88-2.085.88h-16.541c-.804 0-1.498-.293-2.085-.88-.618-.618-.911-1.312-.88-2.085-.062-.834.216-1.529.834-2.085l11.305-11.352H194.717c-.834-.062-1.528-.371-2.085-.927-.648-.587-.942-1.298-.88-2.132-.031-.771.262-1.467.88-2.085.557-.586 1.251-.88 2.085-.88h16.541z"/></g></svg>